<svg width="69" height="69" viewBox="0 0 69 69" fill="none" xmlns="http://www.w3.org/2000/svg">
<g clip-path="url(#clip0_104_892)">
<path fill-rule="evenodd" clip-rule="evenodd" d="M36.248 46.7759C37.568 47.4719 39.044 47.8199 40.676 47.8199C41.828 47.8199 42.872 47.6639 43.808 47.3519C44.768 47.0159 45.512 46.6439 46.04 46.2359L44.636 43.4999C44.4047 43.6734 44.1123 43.8339 43.759 43.9812C43.5259 44.0785 43.2662 44.17 42.98 44.2559C42.284 44.4719 41.564 44.5799 40.82 44.5799C39.332 44.5799 38.168 44.0879 37.328 43.1039C36.512 42.1199 36.104 40.7399 36.104 38.9639C36.104 37.4039 36.5 36.1559 37.292 35.2199C38.108 34.2839 39.284 33.8159 40.82 33.8159C41.775 33.8159 42.6556 34.1 43.4619 34.6682C43.7294 34.8568 43.9888 35.0767 44.24 35.3279L45.968 32.1959C45.44 31.7159 44.708 31.3199 43.772 31.0079C42.86 30.6719 41.768 30.5039 40.496 30.5039C38.816 30.5039 37.328 30.8519 36.032 31.5479C34.76 32.2439 33.764 33.2399 33.044 34.5359C32.348 35.8079 32 37.2959 32 38.9999C32 40.7999 32.384 42.3719 33.152 43.7159C33.92 45.0359 34.952 46.0559 36.248 46.7759ZM44.1029 30.0641C43.0553 29.6807 41.8451 29.5039 40.496 29.5039C38.6746 29.5039 37.0199 29.8823 35.5589 30.6669L35.552 30.6706C34.1104 31.4595 32.9794 32.593 32.1698 34.0503L32.1667 34.0559C31.3772 35.4989 31 37.1576 31 38.9999C31 40.9453 31.4162 42.6939 32.2838 44.212L32.2877 44.2188C33.1433 45.6895 34.3041 46.8399 35.7624 47.6501L35.7719 47.6554L35.7816 47.6605C37.2585 48.4392 38.897 48.8199 40.676 48.8199C41.9179 48.8199 43.0708 48.6517 44.1242 48.3006L44.1313 48.2982L44.1384 48.2958C45.1523 47.9409 46.0063 47.5257 46.6514 47.0272L47.3092 46.5189L44.9844 41.9886L44.036 42.6999C43.7839 42.889 43.3564 43.0989 42.6927 43.2981L42.6836 43.3008C42.0856 43.4864 41.4656 43.5799 40.82 43.5799C39.5788 43.5799 38.7132 43.1834 38.0932 42.46C37.4775 41.7142 37.104 40.5927 37.104 38.9639C37.104 37.5781 37.4521 36.5819 38.0506 35.8715C38.6328 35.207 39.5024 34.8159 40.82 34.8159C41.7937 34.8159 42.6877 35.1898 43.5329 36.035L44.4732 36.9753L47.2252 31.9873L46.6407 31.456C45.9814 30.8567 45.1173 30.4038 44.1029 30.0641Z" fill="#505050"/>
<path d="M23.664 34.464H21V31.368H23.664V27.804C23.664 25.644 24.18 23.976 25.212 22.8C26.268 21.6 27.804 21 29.82 21C30.636 21 31.56 21.228 32.592 21.684L31.836 25.356C31.668 25.164 31.404 24.984 31.044 24.816C30.708 24.624 30.336 24.528 29.928 24.528C28.32 24.528 27.504 25.572 27.48 27.66V31.368H31.368V34.464H27.48V47.892H23.664V34.464Z" fill="#505050"/>
<path fill-rule="evenodd" clip-rule="evenodd" d="M30.9379 24.7592C30.6302 24.6051 30.2935 24.528 29.928 24.528C28.32 24.528 27.504 25.572 27.48 27.66V31.368H31.368V34.464H27.48V47.892H23.664V34.464H21V31.368H23.664V27.804C23.664 25.644 24.18 23.976 25.212 22.8C26.268 21.6 27.804 21 29.82 21C30.636 21 31.56 21.228 32.592 21.684L31.836 25.356C31.668 25.164 31.404 24.984 31.044 24.816C31.009 24.796 30.9737 24.7771 30.9379 24.7592ZM22.664 30.368H20V35.464H22.664V48.892H28.48V35.464H32.368V30.368H28.48V27.666C28.4915 26.7268 28.6834 26.2013 28.8979 25.9268C29.0755 25.6996 29.3587 25.528 29.928 25.528C30.1718 25.528 30.3713 25.5833 30.5479 25.6842L30.5837 25.7047L30.6211 25.7222C30.918 25.8607 31.0436 25.969 31.0834 26.0145L32.4094 27.5299L33.7342 21.0954L32.9962 20.7693C31.8825 20.2772 30.8177 20 29.82 20C27.5973 20 25.7546 20.6697 24.4613 22.1394L24.4604 22.1404C23.2163 23.5581 22.664 25.4937 22.664 27.804V30.368Z" fill="#505050"/>
</g>
<defs>
<clipPath id="clip0_104_892">
<rect width="69" height="69" rx="5" fill="white"/>
</clipPath>
</defs>
</svg>
